# xmcd
#
# Track frame offsets:
#	150
#	18022
#	36572
#	53277
#	66505
#	81840
#	97877
#
# Disc length: 1480 seconds
#
# Revision: 2
# Processed by: cddbd v1.5.2PL0 Copyright (c) Steve Scherf et al.
# Submitted via: EasyCDDAExtractor 10.0.6.1
#
DISCID=4d05c607
DTITLE=Various Artist - CDX  Vol 15B
DYEAR=1991
DGENRE=Country
TTITLE0=Steve Wariner - Leave Him Out Of This 
TTITLE1=Exile - Nothing At All
TTITLE2=Martin Delray - One In A Row
TTITLE3=Mark Clooie - She's Never Comin' Back 
TTITLE4=Ray Syevens - Teenage Mutant Kung Fo Chicken 
TTITLE5=Waylon and Willie - Tryin' To Outrun The Wind
TTITLE6=Tanya Tucker - Without You, What Do I Do With Me
EXTD=
EXTT0=
EXTT1=
EXTT2=
EXTT3=
EXTT4=
EXTT5=
EXTT6=
PLAYORDER=
